STARTFONT 2.1
FONT -*-helvetica-*-r-*--13-130-*-*-*-*-*-*
SIZE 13 75 75
FONTBOUNDINGBOX 19 16 -6 -3
STARTPROPERTIES 20
FAMILY_NAME "helvetica"
PIXEL_SIZE 13
POINT_SIZE 130
RESOLUTION_X 75
RESOLUTION_Y 75
SPACING "p"
AVERAGE_WIDTH 71
RAW_PIXEL_SIZE 1000
RAW_POINT_SIZE 964
RAW_ASCENT 1000
RAW_DESCENT 206
RAW_AVERAGE_WIDTH 100
FONT "-*-helvetica-*-r-*--13-130-*-*-*-*-*-*"
WEIGHT 10
RESOLUTION 103
X_HEIGHT -1
QUAD_WIDTH 6
DEFAULT_CHAR 32
FONT_ASCENT 11
FONT_DESCENT 2
ENDPROPERTIES
CHARS 104
STARTCHAR C000
ENCODING 0
SWIDTH 506 0
DWIDTH 17 0
BBX 14 13 -6 -4
BITMAP
e01c
f03c
f87c
7cf8
3ff0
1fe0
0fc0
0fc0
1fe0
3ff0
7cf8
f87c
f03c
ENDCHAR
STARTCHAR C001
ENCODING 1
SWIDTH 506 0
DWIDTH 17 0
BBX 16 15 -7 -5
BITMAP
f00f
f81f
fc3f
fe7f
7ffe
3ffc
1ff8
0ff0
0ff0
1ff8
3ffc
7ffe
fe7f
fc3f
f81f
ENDCHAR
STARTCHAR C002
ENCODING 2
SWIDTH 506 0
DWIDTH 17 0
BBX 14 13 -5 -4
BITMAP
000c
003c
00f8
03f8
0ff0
3ff0
03e0
07e0
0ec0
1cc0
3880
7080
e000
ENDCHAR
STARTCHAR C003
ENCODING 3
SWIDTH 506 0
DWIDTH 17 0
BBX 16 15 -6 -5
BITMAP
0007
001f
007f
01fe
07fe
1ffc
3ffc
3ff8
07f8
0ff0
1ff0
3ee0
7ce0
f840
7000
ENDCHAR
STARTCHAR space
ENCODING 32
SWIDTH 221 0
DWIDTH 3 0
BBX 0 0 0 0
BITMAP
ENDCHAR
STARTCHAR exclam
ENCODING 33
SWIDTH 221 0
DWIDTH 3 0
BBX 1 10 1 0
BITMAP
80
80
80
80
80
80
80
80
00
80
ENDCHAR
STARTCHAR quotedbl
ENCODING 34
SWIDTH 369 0
DWIDTH 5 0
BBX 3 3 1 7
BITMAP
a0
a0
a0
ENDCHAR
STARTCHAR numbersign
ENCODING 35
SWIDTH 516 0
DWIDTH 7 0
BBX 8 10 0 0
BITMAP
12
12
14
ff
24
24
ff
48
48
48
ENDCHAR
STARTCHAR dollar
ENCODING 36
SWIDTH 516 0
DWIDTH 7 0
BBX 5 11 1 -1
BITMAP
70
a8
a0
a0
e0
38
28
a8
a8
70
20
ENDCHAR
STARTCHAR percent
ENCODING 37
SWIDTH 886 0
DWIDTH 12 0
BBX 10 10 1 0
BITMAP
6100
9200
9200
9400
6400
0980
0a40
1240
1240
2180
ENDCHAR
STARTCHAR ampersand
ENCODING 38
SWIDTH 664 0
DWIDTH 9 0
BBX 8 10 1 0
BITMAP
30
48
48
48
30
60
92
8a
8c
73
ENDCHAR
STARTCHAR apostrophe
ENCODING 39
SWIDTH 147 0
DWIDTH 2 0
BBX 1 3 1 7
BITMAP
80
80
80
ENDCHAR
STARTCHAR parenleft
ENCODING 40
SWIDTH 295 0
DWIDTH 4 0
BBX 3 13 1 -3
BITMAP
20
40
40
80
80
80
80
80
80
80
40
40
20
ENDCHAR
STARTCHAR parenright
ENCODING 41
SWIDTH 295 0
DWIDTH 4 0
BBX 3 13 0 -3
BITMAP
80
40
40
20
20
20
20
20
20
20
40
40
80
ENDCHAR
STARTCHAR asterisk
ENCODING 42
SWIDTH 369 0
DWIDTH 5 0
BBX 5 4 0 6
BITMAP
20
f8
20
50
ENDCHAR
STARTCHAR plus
ENCODING 43
SWIDTH 590 0
DWIDTH 8 0
BBX 7 7 1 1
BITMAP
10
10
10
fe
10
10
10
ENDCHAR
STARTCHAR comma
ENCODING 44
SWIDTH 295 0
DWIDTH 4 0
BBX 1 3 2 -2
BITMAP
80
80
80
ENDCHAR
STARTCHAR minus
ENCODING 45
SWIDTH 295 0
DWIDTH 4 0
BBX 3 1 0 3
BITMAP
e0
ENDCHAR
STARTCHAR period
ENCODING 46
SWIDTH 295 0
DWIDTH 4 0
BBX 1 1 1 0
BITMAP
80
ENDCHAR
STARTCHAR slash
ENCODING 47
SWIDTH 295 0
DWIDTH 4 0
BBX 4 10 0 0
BITMAP
10
10
20
20
20
40
40
40
80
80
ENDCHAR
STARTCHAR 0
ENCODING 48
SWIDTH 516 0
DWIDTH 7 0
BBX 6 10 0 0
BITMAP
78
84
84
84
84
84
84
84
84
78
ENDCHAR
STARTCHAR 1
ENCODING 49
SWIDTH 516 0
DWIDTH 7 0
BBX 3 10 1 0
BITMAP
20
60
a0
20
20
20
20
20
20
20
ENDCHAR
STARTCHAR 2
ENCODING 50
SWIDTH 516 0
DWIDTH 7 0
BBX 6 10 0 0
BITMAP
78
84
04
04
04
08
10
20
40
fc
ENDCHAR
STARTCHAR 3
ENCODING 51
SWIDTH 516 0
DWIDTH 7 0
BBX 6 10 0 0
BITMAP
78
84
04
04
38
04
04
04
84
78
ENDCHAR
STARTCHAR 4
ENCODING 52
SWIDTH 516 0
DWIDTH 7 0
BBX 6 10 0 0
BITMAP
08
18
18
28
28
48
48
fc
08
08
ENDCHAR
STARTCHAR 5
ENCODING 53
SWIDTH 516 0
DWIDTH 7 0
BBX 6 10 0 0
BITMAP
7c
40
40
80
f8
84
04
04
84
78
ENDCHAR
STARTCHAR 6
ENCODING 54
SWIDTH 516 0
DWIDTH 7 0
BBX 6 10 0 0
BITMAP
78
84
80
80
b8
c4
84
84
84
78
ENDCHAR
STARTCHAR 7
ENCODING 55
SWIDTH 516 0
DWIDTH 7 0
BBX 6 10 0 0
BITMAP
fc
08
08
10
10
20
20
40
40
40
ENDCHAR
STARTCHAR 8
ENCODING 56
SWIDTH 516 0
DWIDTH 7 0
BBX 6 10 0 0
BITMAP
78
84
84
84
78
84
84
84
84
78
ENDCHAR
STARTCHAR 9
ENCODING 57
SWIDTH 516 0
DWIDTH 7 0
BBX 6 10 0 0
BITMAP
78
84
84
84
8c
74
04
04
88
70
ENDCHAR
STARTCHAR colon
ENCODING 58
SWIDTH 295 0
DWIDTH 4 0
BBX 1 7 1 0
BITMAP
80
00
00
00
00
00
80
ENDCHAR
STARTCHAR semicolon
ENCODING 59
SWIDTH 295 0
DWIDTH 4 0
BBX 1 9 1 -2
BITMAP
80
00
00
00
00
00
80
80
80
ENDCHAR
STARTCHAR less
ENCODING 60
SWIDTH 590 0
DWIDTH 8 0
BBX 6 7 1 1
BITMAP
04
18
60
80
60
18
04
ENDCHAR
STARTCHAR equal
ENCODING 61
SWIDTH 590 0
DWIDTH 8 0
BBX 7 4 0 3
BITMAP
fe
00
00
fe
ENDCHAR
STARTCHAR greater
ENCODING 62
SWIDTH 590 0
DWIDTH 8 0
BBX 6 7 1 1
BITMAP
80
60
18
04
18
60
80
ENDCHAR
STARTCHAR question
ENCODING 63
SWIDTH 516 0
DWIDTH 7 0
BBX 5 10 1 0
BITMAP
70
88
88
08
10
20
40
40
00
40
ENDCHAR
STARTCHAR at
ENCODING 64
SWIDTH 960 0
DWIDTH 13 0
BBX 12 13 0 -3
BITMAP
0f80
3040
4020
4e90
9190
a090
a110
a120
a320
9dc0
4010
2060
1f80
ENDCHAR
STARTCHAR A
ENCODING 65
SWIDTH 664 0
DWIDTH 9 0
BBX 9 10 0 0
BITMAP
0800
1400
1400
3600
2200
2200
7f00
4100
8080
8080
ENDCHAR
STARTCHAR B
ENCODING 66
SWIDTH 664 0
DWIDTH 9 0
BBX 7 10 1 0
BITMAP
fc
82
82
82
fc
82
82
82
82
fc
ENDCHAR
STARTCHAR C
ENCODING 67
SWIDTH 664 0
DWIDTH 9 0
BBX 7 10 1 0
BITMAP
38
44
82
80
80
80
80
82
44
38
ENDCHAR
STARTCHAR D
ENCODING 68
SWIDTH 664 0
DWIDTH 9 0
BBX 7 10 1 0
BITMAP
f8
84
82
82
82
82
82
82
84
f8
ENDCHAR
STARTCHAR E
ENCODING 69
SWIDTH 664 0
DWIDTH 9 0
BBX 7 10 1 0
BITMAP
fe
80
80
80
fe
80
80
80
80
fe
ENDCHAR
STARTCHAR F
ENCODING 70
SWIDTH 590 0
DWIDTH 8 0
BBX 6 10 1 0
BITMAP
fc
80
80
80
f8
80
80
80
80
80
ENDCHAR
STARTCHAR G
ENCODING 71
SWIDTH 738 0
DWIDTH 10 0
BBX 8 10 1 0
BITMAP
3c
42
81
80
80
8f
81
81
42
3c
ENDCHAR
STARTCHAR H
ENCODING 72
SWIDTH 664 0
DWIDTH 9 0
BBX 7 10 1 0
BITMAP
82
82
82
82
fe
82
82
82
82
82
ENDCHAR
STARTCHAR I
ENCODING 73
SWIDTH 221 0
DWIDTH 3 0
BBX 1 10 1 0
BITMAP
80
80
80
80
80
80
80
80
80
80
ENDCHAR
STARTCHAR J
ENCODING 74
SWIDTH 443 0
DWIDTH 6 0
BBX 5 10 0 0
BITMAP
08
08
08
08
08
08
08
88
88
70
ENDCHAR
STARTCHAR K
ENCODING 75
SWIDTH 664 0
DWIDTH 9 0
BBX 8 10 1 0
BITMAP
81
82
84
88
90
b0
c8
84
82
81
ENDCHAR
STARTCHAR L
ENCODING 76
SWIDTH 516 0
DWIDTH 7 0
BBX 6 10 1 0
BITMAP
80
80
80
80
80
80
80
80
80
fc
ENDCHAR
STARTCHAR M
ENCODING 77
SWIDTH 812 0
DWIDTH 11 0
BBX 9 10 1 0
BITMAP
8080
c180
c180
a280
a280
9680
9480
9480
8880
8880
ENDCHAR
STARTCHAR N
ENCODING 78
SWIDTH 664 0
DWIDTH 9 0
BBX 7 10 1 0
BITMAP
82
c2
a2
a2
92
92
8a
8a
86
82
ENDCHAR
STARTCHAR O
ENCODING 79
SWIDTH 738 0
DWIDTH 10 0
BBX 8 10 1 0
BITMAP
3c
42
81
81
81
81
81
81
42
3c
ENDCHAR
STARTCHAR P
ENCODING 80
SWIDTH 664 0
DWIDTH 9 0
BBX 7 10 1 0
BITMAP
fc
82
82
82
82
fc
80
80
80
80
ENDCHAR
STARTCHAR Q
ENCODING 81
SWIDTH 738 0
DWIDTH 10 0
BBX 8 10 1 0
BITMAP
3c
42
81
81
81
81
81
8d
42
3d
ENDCHAR
STARTCHAR R
ENCODING 82
SWIDTH 664 0
DWIDTH 9 0
BBX 7 10 1 0
BITMAP
fc
82
82
82
82
fc
88
84
84
82
ENDCHAR
STARTCHAR S
ENCODING 83
SWIDTH 664 0
DWIDTH 9 0
BBX 7 10 1 0
BITMAP
7c
82
82
80
70
0c
02
82
82
7c
ENDCHAR
STARTCHAR T
ENCODING 84
SWIDTH 516 0
DWIDTH 7 0
BBX 7 10 0 0
BITMAP
fe
10
10
10
10
10
10
10
10
10
ENDCHAR
STARTCHAR U
ENCODING 85
SWIDTH 664 0
DWIDTH 9 0
BBX 7 10 1 0
BITMAP
82
82
82
82
82
82
82
82
44
38
ENDCHAR
STARTCHAR V
ENCODING 86
SWIDTH 664 0
DWIDTH 9 0
BBX 11 10 -1 0
BITMAP
4040
4040
2080
2080
1100
1100
0a00
0a00
0400
0400
ENDCHAR
STARTCHAR W
ENCODING 87
SWIDTH 960 0
DWIDTH 13 0
BBX 13 10 0 0
BITMAP
8208
8508
4510
4510
4510
28a0
28a0
28a0
1040
1040
ENDCHAR
STARTCHAR X
ENCODING 88
SWIDTH 516 0
DWIDTH 7 0
BBX 7 10 0 0
BITMAP
82
44
24
28
10
10
28
28
44
82
ENDCHAR
STARTCHAR Y
ENCODING 89
SWIDTH 664 0
DWIDTH 9 0
BBX 7 10 1 0
BITMAP
82
44
44
28
28
10
10
10
10
10
ENDCHAR
STARTCHAR Z
ENCODING 90
SWIDTH 516 0
DWIDTH 7 0
BBX 7 10 0 0
BITMAP
7e
04
08
08
10
10
20
20
40
fe
ENDCHAR
STARTCHAR bracketleft
ENCODING 91
SWIDTH 295 0
DWIDTH 4 0
BBX 2 13 1 -3
BITMAP
c0
80
80
80
80
80
80
80
80
80
80
80
c0
ENDCHAR
STARTCHAR backslash
ENCODING 92
SWIDTH 295 0
DWIDTH 4 0
BBX 4 10 0 0
BITMAP
80
80
40
40
40
20
20
20
10
10
ENDCHAR
STARTCHAR bracketright
ENCODING 93
SWIDTH 295 0
DWIDTH 4 0
BBX 2 13 1 -3
BITMAP
c0
40
40
40
40
40
40
40
40
40
40
40
c0
ENDCHAR
STARTCHAR asciicircum
ENCODING 94
SWIDTH 369 0
DWIDTH 5 0
BBX 5 5 0 4
BITMAP
20
50
50
50
88
ENDCHAR
STARTCHAR underscore
ENCODING 95
SWIDTH 516 0
DWIDTH 7 0
BBX 7 1 0 -3
BITMAP
fe
ENDCHAR
STARTCHAR grave
ENCODING 96
SWIDTH 295 0
DWIDTH 4 0
BBX 2 2 1 8
BITMAP
80
40
ENDCHAR
STARTCHAR a
ENCODING 97
SWIDTH 516 0
DWIDTH 7 0
BBX 5 7 1 0
BITMAP
70
88
08
78
88
98
68
ENDCHAR
STARTCHAR b
ENCODING 98
SWIDTH 516 0
DWIDTH 7 0
BBX 5 10 1 0
BITMAP
80
80
80
b0
c8
88
88
88
c8
b0
ENDCHAR
STARTCHAR c
ENCODING 99
SWIDTH 516 0
DWIDTH 7 0
BBX 5 7 1 0
BITMAP
70
88
80
80
80
88
70
ENDCHAR
STARTCHAR d
ENCODING 100
SWIDTH 516 0
DWIDTH 7 0
BBX 5 10 1 0
BITMAP
08
08
08
68
98
88
88
88
98
68
ENDCHAR
STARTCHAR e
ENCODING 101
SWIDTH 516 0
DWIDTH 7 0
BBX 5 7 1 0
BITMAP
70
88
88
f8
80
88
70
ENDCHAR
STARTCHAR f
ENCODING 102
SWIDTH 221 0
DWIDTH 3 0
BBX 4 10 0 0
BITMAP
30
40
40
e0
40
40
40
40
40
40
ENDCHAR
STARTCHAR g
ENCODING 103
SWIDTH 516 0
DWIDTH 7 0
BBX 5 10 1 -3
BITMAP
68
98
88
88
88
98
68
08
88
70
ENDCHAR
STARTCHAR h
ENCODING 104
SWIDTH 516 0
DWIDTH 7 0
BBX 5 10 1 0
BITMAP
80
80
80
b0
c8
88
88
88
88
88
ENDCHAR
STARTCHAR i
ENCODING 105
SWIDTH 221 0
DWIDTH 3 0
BBX 1 10 1 0
BITMAP
80
00
00
80
80
80
80
80
80
80
ENDCHAR
STARTCHAR j
ENCODING 106
SWIDTH 221 0
DWIDTH 3 0
BBX 3 13 -1 -3
BITMAP
20
00
00
20
20
20
20
20
20
20
20
20
c0
ENDCHAR
STARTCHAR k
ENCODING 107
SWIDTH 516 0
DWIDTH 7 0
BBX 5 10 1 0
BITMAP
80
80
80
88
90
a0
e0
90
90
88
ENDCHAR
STARTCHAR l
ENCODING 108
SWIDTH 221 0
DWIDTH 3 0
BBX 1 10 1 0
BITMAP
80
80
80
80
80
80
80
80
80
80
ENDCHAR
STARTCHAR m
ENCODING 109
SWIDTH 812 0
DWIDTH 11 0
BBX 9 7 1 0
BITMAP
b300
cc80
8880
8880
8880
8880
8880
ENDCHAR
STARTCHAR n
ENCODING 110
SWIDTH 516 0
DWIDTH 7 0
BBX 5 7 1 0
BITMAP
b0
c8
88
88
88
88
88
ENDCHAR
STARTCHAR o
ENCODING 111
SWIDTH 516 0
DWIDTH 7 0
BBX 5 7 1 0
BITMAP
70
88
88
88
88
88
70
ENDCHAR
STARTCHAR p
ENCODING 112
SWIDTH 516 0
DWIDTH 7 0
BBX 5 10 1 -3
BITMAP
b0
c8
88
88
88
c8
b0
80
80
80
ENDCHAR
STARTCHAR q
ENCODING 113
SWIDTH 516 0
DWIDTH 7 0
BBX 5 10 1 -3
BITMAP
68
98
88
88
88
98
68
08
08
08
ENDCHAR
STARTCHAR r
ENCODING 114
SWIDTH 295 0
DWIDTH 4 0
BBX 3 7 1 0
BITMAP
a0
c0
80
80
80
80
80
ENDCHAR
STARTCHAR s
ENCODING 115
SWIDTH 516 0
DWIDTH 7 0
BBX 5 7 1 0
BITMAP
70
88
80
70
08
88
70
ENDCHAR
STARTCHAR t
ENCODING 116
SWIDTH 295 0
DWIDTH 4 0
BBX 3 9 0 0
BITMAP
40
40
e0
40
40
40
40
40
60
ENDCHAR
STARTCHAR u
ENCODING 117
SWIDTH 516 0
DWIDTH 7 0
BBX 5 7 1 0
BITMAP
88
88
88
88
88
98
68
ENDCHAR
STARTCHAR v
ENCODING 118
SWIDTH 369 0
DWIDTH 5 0
BBX 5 7 0 0
BITMAP
88
88
50
50
50
20
20
ENDCHAR
STARTCHAR w
ENCODING 119
SWIDTH 664 0
DWIDTH 9 0
BBX 9 7 0 0
BITMAP
8880
8c80
5500
5500
5500
2200
2200
ENDCHAR
STARTCHAR x
ENCODING 120
SWIDTH 516 0
DWIDTH 7 0
BBX 5 7 1 0
BITMAP
88
50
50
20
50
50
88
ENDCHAR
STARTCHAR y
ENCODING 121
SWIDTH 516 0
DWIDTH 7 0
BBX 5 10 1 -3
BITMAP
88
88
50
50
50
20
20
20
20
c0
ENDCHAR
STARTCHAR z
ENCODING 122
SWIDTH 516 0
DWIDTH 7 0
BBX 5 7 1 0
BITMAP
f8
10
10
20
40
40
f8
ENDCHAR
STARTCHAR braceleft
ENCODING 123
SWIDTH 295 0
DWIDTH 4 0
BBX 3 13 0 -3
BITMAP
20
40
40
40
40
40
80
40
40
40
40
40
20
ENDCHAR
STARTCHAR bar
ENCODING 124
SWIDTH 221 0
DWIDTH 3 0
BBX 1 12 1 -2
BITMAP
80
80
80
80
80
80
80
80
80
80
80
80
ENDCHAR
STARTCHAR braceright
ENCODING 125
SWIDTH 295 0
DWIDTH 4 0
BBX 3 13 1 -3
BITMAP
80
40
40
40
40
40
20
40
40
40
40
40
80
ENDCHAR
STARTCHAR asciitilde
ENCODING 126
SWIDTH 590 0
DWIDTH 8 0
BBX 7 2 0 4
BITMAP
72
9c
ENDCHAR
STARTCHAR C204
ENCODING 132
SWIDTH 506 0
DWIDTH 17 0
BBX 14 13 0 -4
BITMAP
c000
f000
7c00
7f00
3fc0
3ff0
1f00
1f00
0c80
0c40
0420
0410
0008
ENDCHAR
STARTCHAR C205
ENCODING 133
SWIDTH 506 0
DWIDTH 17 0
BBX 16 15 -1 -5
BITMAP
e000
f800
fe00
7f80
7fe0
3ffc
3ffc
1ffc
1fc0
0fe0
0f70
0738
071c
070e
0007
ENDCHAR
STARTCHAR C230
ENCODING 152
SWIDTH 297 0
DWIDTH 10 0
BBX 7 14 -3 -3
BITMAP
ee
38
10
10
10
10
10
10
10
10
10
10
38
ee
ENDCHAR
STARTCHAR C231
ENCODING 153
SWIDTH 297 0
DWIDTH 10 0
BBX 9 16 -4 -4
BITMAP
f780
ff80
ff80
3e00
1c00
1c00
1c00
1c00
1c00
1c00
1c00
1c00
3e00
ff80
ff80
f780
ENDCHAR
STARTCHAR sterling
ENCODING 163
SWIDTH 640 0
DWIDTH 8 0
BBX 6 9 1 0
BITMAP
30
48
40
40
f0
20
20
48
b0
ENDCHAR
ENDFONT
